<mxfile host="app.diagrams.net" agent="Mozilla/5.0 (Windows NT 10.0; Win64; x64) AppleWebKit/537.36 (KHTML, like Gecko) Chrome/132.0.0.0 Safari/537.36" version="26.0.6">
  <diagram name="Page-1" id="FJnWC_UehH_k_hRKaAZr">
    <mxGraphModel grid="1" page="1" gridSize="10" guides="1" tooltips="1" connect="1" arrows="1" fold="1" pageScale="1" pageWidth="827" pageHeight="1169" math="0" shadow="0">
      <root>
        <mxCell id="0" />
        <mxCell id="1" parent="0" />
        <mxCell id="MtFYQzZh-2URlO4869Uf-4" style="edgeStyle=orthogonalEdgeStyle;rounded=0;orthogonalLoop=1;jettySize=auto;html=1;entryX=0;entryY=0.5;entryDx=0;entryDy=0;" edge="1" parent="1" source="MtFYQzZh-2URlO4869Uf-1" target="MtFYQzZh-2URlO4869Uf-2">
          <mxGeometry relative="1" as="geometry" />
        </mxCell>
        <mxCell id="MtFYQzZh-2URlO4869Uf-5" style="edgeStyle=orthogonalEdgeStyle;rounded=0;orthogonalLoop=1;jettySize=auto;html=1;entryX=0;entryY=0.5;entryDx=0;entryDy=0;" edge="1" parent="1" source="MtFYQzZh-2URlO4869Uf-1" target="MtFYQzZh-2URlO4869Uf-3">
          <mxGeometry relative="1" as="geometry" />
        </mxCell>
        <mxCell id="MtFYQzZh-2URlO4869Uf-1" value="Page d&#39;accueil" style="rounded=1;whiteSpace=wrap;html=1;" vertex="1" parent="1">
          <mxGeometry x="110" y="310" width="120" height="60" as="geometry" />
        </mxCell>
        <mxCell id="MtFYQzZh-2URlO4869Uf-7" style="edgeStyle=orthogonalEdgeStyle;rounded=0;orthogonalLoop=1;jettySize=auto;html=1;entryX=0;entryY=0.5;entryDx=0;entryDy=0;" edge="1" parent="1" source="MtFYQzZh-2URlO4869Uf-2" target="MtFYQzZh-2URlO4869Uf-6">
          <mxGeometry relative="1" as="geometry" />
        </mxCell>
        <mxCell id="MtFYQzZh-2URlO4869Uf-2" value="S&#39;inscrire" style="rounded=1;whiteSpace=wrap;html=1;" vertex="1" parent="1">
          <mxGeometry x="354" y="230" width="120" height="60" as="geometry" />
        </mxCell>
        <mxCell id="MtFYQzZh-2URlO4869Uf-9" style="edgeStyle=orthogonalEdgeStyle;rounded=0;orthogonalLoop=1;jettySize=auto;html=1;entryX=0;entryY=0.5;entryDx=0;entryDy=0;" edge="1" parent="1" source="MtFYQzZh-2URlO4869Uf-3" target="MtFYQzZh-2URlO4869Uf-6">
          <mxGeometry relative="1" as="geometry" />
        </mxCell>
        <mxCell id="MtFYQzZh-2URlO4869Uf-13" style="edgeStyle=orthogonalEdgeStyle;rounded=0;orthogonalLoop=1;jettySize=auto;html=1;entryX=0.5;entryY=0;entryDx=0;entryDy=0;" edge="1" parent="1" source="MtFYQzZh-2URlO4869Uf-3" target="MtFYQzZh-2URlO4869Uf-12">
          <mxGeometry relative="1" as="geometry" />
        </mxCell>
        <mxCell id="MtFYQzZh-2URlO4869Uf-3" value="Se login" style="rounded=1;whiteSpace=wrap;html=1;" vertex="1" parent="1">
          <mxGeometry x="354" y="410" width="120" height="60" as="geometry" />
        </mxCell>
        <mxCell id="MtFYQzZh-2URlO4869Uf-11" style="edgeStyle=orthogonalEdgeStyle;rounded=0;orthogonalLoop=1;jettySize=auto;html=1;" edge="1" parent="1" source="MtFYQzZh-2URlO4869Uf-6" target="MtFYQzZh-2URlO4869Uf-10">
          <mxGeometry relative="1" as="geometry" />
        </mxCell>
        <mxCell id="MtFYQzZh-2URlO4869Uf-17" style="edgeStyle=orthogonalEdgeStyle;rounded=0;orthogonalLoop=1;jettySize=auto;html=1;entryX=0.5;entryY=0;entryDx=0;entryDy=0;" edge="1" parent="1" source="MtFYQzZh-2URlO4869Uf-6">
          <mxGeometry relative="1" as="geometry">
            <mxPoint x="640" y="450" as="targetPoint" />
          </mxGeometry>
        </mxCell>
        <mxCell id="MtFYQzZh-2URlO4869Uf-6" value="Consulter la FAQ" style="rounded=1;whiteSpace=wrap;html=1;" vertex="1" parent="1">
          <mxGeometry x="580" y="320" width="120" height="60" as="geometry" />
        </mxCell>
        <mxCell id="MtFYQzZh-2URlO4869Uf-10" value="Poser une question" style="rounded=1;whiteSpace=wrap;html=1;" vertex="1" parent="1">
          <mxGeometry x="810" y="320" width="120" height="60" as="geometry" />
        </mxCell>
        <mxCell id="MtFYQzZh-2URlO4869Uf-12" value="Mot de passe oubliÃ©" style="rounded=1;whiteSpace=wrap;html=1;" vertex="1" parent="1">
          <mxGeometry x="354" y="600" width="120" height="60" as="geometry" />
        </mxCell>
        <mxCell id="MtFYQzZh-2URlO4869Uf-26" style="edgeStyle=orthogonalEdgeStyle;rounded=0;orthogonalLoop=1;jettySize=auto;html=1;exitX=0.5;exitY=1;exitDx=0;exitDy=0;entryX=0.5;entryY=0;entryDx=0;entryDy=0;" edge="1" parent="1" source="MtFYQzZh-2URlO4869Uf-24" target="MtFYQzZh-2URlO4869Uf-25">
          <mxGeometry relative="1" as="geometry" />
        </mxCell>
        <mxCell id="MtFYQzZh-2URlO4869Uf-27" value="Oui" style="edgeLabel;html=1;align=center;verticalAlign=middle;resizable=0;points=[];" connectable="0" vertex="1" parent="MtFYQzZh-2URlO4869Uf-26">
          <mxGeometry x="-0.3091" y="-1" relative="1" as="geometry">
            <mxPoint as="offset" />
          </mxGeometry>
        </mxCell>
        <mxCell id="MtFYQzZh-2URlO4869Uf-24" value="Utilisateur admin?" style="rhombus;whiteSpace=wrap;html=1;" vertex="1" parent="1">
          <mxGeometry x="600" y="450" width="80" height="80" as="geometry" />
        </mxCell>
        <mxCell id="MtFYQzZh-2URlO4869Uf-30" style="edgeStyle=orthogonalEdgeStyle;rounded=0;orthogonalLoop=1;jettySize=auto;html=1;" edge="1" parent="1" source="MtFYQzZh-2URlO4869Uf-25">
          <mxGeometry relative="1" as="geometry">
            <mxPoint x="550" y="750" as="targetPoint" />
          </mxGeometry>
        </mxCell>
        <mxCell id="MtFYQzZh-2URlO4869Uf-31" style="edgeStyle=orthogonalEdgeStyle;rounded=0;orthogonalLoop=1;jettySize=auto;html=1;" edge="1" parent="1" source="MtFYQzZh-2URlO4869Uf-25">
          <mxGeometry relative="1" as="geometry">
            <mxPoint x="830" y="750" as="targetPoint" />
          </mxGeometry>
        </mxCell>
        <mxCell id="MtFYQzZh-2URlO4869Uf-25" value="Utilisateur superadmin?" style="rhombus;whiteSpace=wrap;html=1;" vertex="1" parent="1">
          <mxGeometry x="600" y="585" width="80" height="80" as="geometry" />
        </mxCell>
        <mxCell id="MtFYQzZh-2URlO4869Uf-28" value="Supprimer les questions de chaques ligues" style="rounded=1;whiteSpace=wrap;html=1;" vertex="1" parent="1">
          <mxGeometry x="490" y="750" width="120" height="60" as="geometry" />
        </mxCell>
        <mxCell id="MtFYQzZh-2URlO4869Uf-29" value="Supprimer uniquement les questions de sa ligue" style="rounded=1;whiteSpace=wrap;html=1;" vertex="1" parent="1">
          <mxGeometry x="770" y="750" width="120" height="60" as="geometry" />
        </mxCell>
      </root>
    </mxGraphModel>
  </diagram>
</mxfile>
